<?xml version="1.0" encoding="UTF-8" standalone="no"?>
<!DOCTYPE svg PUBLIC "-//W3C//DTD SVG 1.1//EN"
 "http://www.w3.org/Graphics/SVG/1.1/DTD/svg11.dtd">
<!-- Generated by graphviz version 2.40.1 (20161225.0304)
 -->
<!-- Title: is Pages: 1 -->
<svg width="904pt" height="816pt"
 viewBox="0.00 0.00 904.21 815.86" xmlns="http://www.w3.org/2000/svg" xmlns:xlink="http://www.w3.org/1999/xlink">
<g id="graph0" class="graph" transform="scale(1 1) rotate(0) translate(4 811.8578)">
<title>is</title>
<polygon fill="#222222" stroke="transparent" points="-4,4 -4,-811.8578 900.209,-811.8578 900.209,4 -4,4"/>
<!-- copula -->
<g id="node1" class="node">
<title>copula</title>
<g id="a_node1"><a xlink:href="https://drab-makyo.com" xlink:title="Madison Scott&#45;Clary is...">
<polygon fill="#222222" stroke="#ffffff" points="541.349,-424.8263 367.349,-424.8263 367.349,-388.8263 541.349,-388.8263 541.349,-424.8263"/>
<text text-anchor="middle" x="454.349" y="-403.1263" font-family="Helvetica bold" font-size="14.00" fill="#cc99ff">Madison Scott&#45;Clary is...</text>
</a>
</g>
</g>
<!-- writing -->
<g id="node2" class="node">
<title>writing</title>
<polygon fill="#222222" stroke="#ffffff" points="667.1052,-331.329 592.1052,-331.329 592.1052,-295.329 667.1052,-295.329 667.1052,-331.329"/>
<text text-anchor="middle" x="629.6052" y="-309.629" font-family="Helvetica bold" font-size="14.00" fill="#ffffff">Writing...</text>
</g>
<!-- copula&#45;&#45;writing -->
<g id="edge1" class="edge">
<title>copula&#45;&#45;writing</title>
<path fill="none" stroke="#ffffff" d="M488.1401,-388.799C519.0746,-372.2959 564.6236,-347.9959 595.6192,-331.4601"/>
</g>
<!-- programming -->
<g id="node6" class="node">
<title>programming</title>
<polygon fill="#222222" stroke="#ffffff" points="541.005,-229.329 424.005,-229.329 424.005,-193.329 541.005,-193.329 541.005,-229.329"/>
<text text-anchor="middle" x="482.505" y="-207.629" font-family="Helvetica bold" font-size="14.00" fill="#ffffff">Programming...</text>
</g>
<!-- copula&#45;&#45;programming -->
<g id="edge5" class="edge">
<title>copula&#45;&#45;programming</title>
<path fill="none" stroke="#ffffff" d="M456.9474,-388.7848C462.2976,-351.6363 474.4923,-266.9638 479.8719,-229.6111"/>
</g>
<!-- cooking -->
<g id="node10" class="node">
<title>cooking</title>
<polygon fill="#222222" stroke="#ffffff" points="385.9818,-285.7622 303.9818,-285.7622 303.9818,-249.7622 385.9818,-249.7622 385.9818,-285.7622"/>
<text text-anchor="middle" x="344.9818" y="-264.0622" font-family="Helvetica bold" font-size="14.00" fill="#ffffff">Cooking...</text>
</g>
<!-- copula&#45;&#45;cooking -->
<g id="edge9" class="edge">
<title>copula&#45;&#45;cooking</title>
<path fill="none" stroke="#ffffff" d="M440.0511,-388.6461C419.091,-361.9945 380.2453,-312.6009 359.2832,-285.9468"/>
</g>
<!-- photography -->
<g id="node13" class="node">
<title>photography</title>
<polygon fill="#222222" stroke="#ffffff" points="615.3592,-584.3204 488.3592,-584.3204 488.3592,-548.3204 615.3592,-548.3204 615.3592,-584.3204"/>
<text text-anchor="middle" x="551.8592" y="-562.6204" font-family="Helvetica bold" font-size="14.00" fill="#ffffff">Taking pictures...</text>
</g>
<!-- copula&#45;&#45;photography -->
<g id="edge12" class="edge">
<title>copula&#45;&#45;photography</title>
<path fill="none" stroke="#ffffff" d="M465.5346,-425.1223C484.344,-455.8881 522.0826,-517.6157 540.804,-548.2378"/>
</g>
<!-- composing -->
<g id="node16" class="node">
<title>composing</title>
<polygon fill="#222222" stroke="#ffffff" points="305.2206,-405.9761 202.2206,-405.9761 202.2206,-369.9761 305.2206,-369.9761 305.2206,-405.9761"/>
<text text-anchor="middle" x="253.7206" y="-384.2761" font-family="Helvetica bold" font-size="14.00" fill="#ffffff">Composing...</text>
</g>
<!-- copula&#45;&#45;composing -->
<g id="edge15" class="edge">
<title>copula&#45;&#45;composing</title>
<path fill="none" stroke="#ffffff" d="M367.2258,-398.6406C346.0758,-396.6534 324.1297,-394.5915 305.2367,-392.8164"/>
</g>
<!-- talking -->
<g id="node20" class="node">
<title>talking</title>
<polygon fill="#222222" stroke="#ffffff" points="352.0364,-545.206 278.0364,-545.206 278.0364,-509.206 352.0364,-509.206 352.0364,-545.206"/>
<text text-anchor="middle" x="315.0364" y="-523.506" font-family="Helvetica bold" font-size="14.00" fill="#ffffff">Talking...</text>
</g>
<!-- copula&#45;&#45;talking -->
<g id="edge19" class="edge">
<title>copula&#45;&#45;talking</title>
<path fill="none" stroke="#ffffff" d="M433.4925,-424.8483C407.2292,-447.5423 362.3658,-486.3087 336.0354,-509.0607"/>
</g>
<!-- social -->
<g id="node23" class="node">
<title>social</title>
<polygon fill="#222222" stroke="#ffffff" points="479.0694,-610.5469 372.0694,-610.5469 372.0694,-574.5469 479.0694,-574.5469 479.0694,-610.5469"/>
<text text-anchor="middle" x="425.5694" y="-588.8469" font-family="Helvetica bold" font-size="14.00" fill="#ffffff">Being social...</text>
</g>
<!-- copula&#45;&#45;social -->
<g id="edge22" class="edge">
<title>copula&#45;&#45;social</title>
<path fill="none" stroke="#ffffff" d="M451.5371,-424.9721C446.0351,-460.4775 433.9039,-538.7629 428.3928,-574.3274"/>
</g>
<!-- working -->
<g id="node26" class="node">
<title>working</title>
<polygon fill="#222222" stroke="#ffffff" points="668.6668,-481.1059 586.6668,-481.1059 586.6668,-445.1059 668.6668,-445.1059 668.6668,-481.1059"/>
<text text-anchor="middle" x="627.6668" y="-459.4059" font-family="Helvetica bold" font-size="14.00" fill="#ffffff">Working...</text>
</g>
<!-- copula&#45;&#45;working -->
<g id="edge25" class="edge">
<title>copula&#45;&#45;working</title>
<path fill="none" stroke="#ffffff" d="M510.1419,-424.9433C534.9802,-433.0088 563.7101,-442.3379 586.5466,-449.7534"/>
</g>
<!-- writing_anything -->
<g id="node3" class="node">
<title>writing_anything</title>
<g id="a_node3"><a xlink:href="https://writing.drab-makyo.com" xlink:title="Anything">
<polygon fill="#222222" stroke="#ffffff" points="758.0527,-161.0182 683.0527,-161.0182 683.0527,-125.0182 758.0527,-125.0182 758.0527,-161.0182"/>
<text text-anchor="middle" x="720.5527" y="-139.3182" font-family="Helvetica bold" font-size="14.00" fill="#cc99ff">Anything</text>
</a>
</g>
</g>
<!-- writing&#45;&#45;writing_anything -->
<g id="edge2" class="edge">
<title>writing&#45;&#45;writing_anything</title>
<path fill="none" stroke="#ffffff" d="M639.3382,-295.1027C656.843,-262.3227 693.4359,-193.7978 710.8897,-161.1134"/>
</g>
<!-- writing_ally -->
<g id="node4" class="node">
<title>writing_ally</title>
<g id="a_node4"><a xlink:href="https://ally.id" xlink:title="About herself">
<polygon fill="#222222" stroke="#ffffff" points="876.0061,-361.971 772.0061,-361.971 772.0061,-325.971 876.0061,-325.971 876.0061,-361.971"/>
<text text-anchor="middle" x="824.0061" y="-340.271" font-family="Helvetica bold" font-size="14.00" fill="#cc99ff">About herself</text>
</a>
</g>
</g>
<!-- writing&#45;&#45;writing_ally -->
<g id="edge3" class="edge">
<title>writing&#45;&#45;writing_ally</title>
<path fill="none" stroke="#ffffff" d="M667.5491,-319.3098C697.2727,-323.9949 738.9509,-330.5644 771.8174,-335.7449"/>
</g>
<!-- writing_portfolio -->
<g id="node5" class="node">
<title>writing_portfolio</title>
<g id="a_node5"><a xlink:href="https://makyo.ink" xlink:title="Her portfolio">
<polygon fill="#222222" stroke="#ffffff" points="852.8824,-245.2006 754.8824,-245.2006 754.8824,-209.2006 852.8824,-209.2006 852.8824,-245.2006"/>
<text text-anchor="middle" x="803.8824" y="-223.5006" font-family="Helvetica bold" font-size="14.00" fill="#cc99ff">Her portfolio</text>
</a>
</g>
</g>
<!-- writing&#45;&#45;writing_portfolio -->
<g id="edge4" class="edge">
<title>writing&#45;&#45;writing_portfolio</title>
<path fill="none" stroke="#ffffff" d="M666.1394,-295.2736C695.8833,-280.5741 737.6653,-259.9253 767.3963,-245.2322"/>
</g>
<!-- programming_github -->
<g id="node7" class="node">
<title>programming_github</title>
<g id="a_node7"><a xlink:href="https://github.com/makyo" xlink:title="On GitHub">
<polygon fill="#222222" stroke="#ffffff" points="431.7253,-55.9851 345.7253,-55.9851 345.7253,-19.9851 431.7253,-19.9851 431.7253,-55.9851"/>
<text text-anchor="middle" x="388.7253" y="-34.2851" font-family="Helvetica bold" font-size="14.00" fill="#cc99ff">On GitHub</text>
</a>
</g>
</g>
<!-- programming&#45;&#45;programming_github -->
<g id="edge6" class="edge">
<title>programming&#45;&#45;programming_github</title>
<path fill="none" stroke="#ffffff" d="M472.6462,-193.1058C454.635,-159.8137 416.6103,-89.5282 398.5928,-56.2242"/>
</g>
<!-- programming_launchpad -->
<g id="node8" class="node">
<title>programming_launchpad</title>
<g id="a_node8"><a xlink:href="https://launchpad.net/~makyo" xlink:title="On Launchpad">
<polygon fill="#222222" stroke="#ffffff" points="667.7596,-85.3589 555.7596,-85.3589 555.7596,-49.3589 667.7596,-49.3589 667.7596,-85.3589"/>
<text text-anchor="middle" x="611.7596" y="-63.6589" font-family="Helvetica bold" font-size="14.00" fill="#cc99ff">On Launchpad</text>
</a>
</g>
</g>
<!-- programming&#45;&#45;programming_launchpad -->
<g id="edge7" class="edge">
<title>programming&#45;&#45;programming_launchpad</title>
<path fill="none" stroke="#ffffff" d="M498.8752,-193.0951C523.7379,-165.4018 570.7388,-113.0499 595.5223,-85.4448"/>
</g>
<!-- programming_personal -->
<g id="node9" class="node">
<title>programming_personal</title>
<g id="a_node9"><a xlink:href="https://makyo.dev" xlink:title="Her own stuff">
<polygon fill="#222222" stroke="#ffffff" points="556.6953,-36 452.6953,-36 452.6953,0 556.6953,0 556.6953,-36"/>
<text text-anchor="middle" x="504.6953" y="-14.3" font-family="Helvetica bold" font-size="14.00" fill="#cc99ff">Her own stuff</text>
</a>
</g>
</g>
<!-- programming&#45;&#45;programming_personal -->
<g id="edge8" class="edge">
<title>programming&#45;&#45;programming_personal</title>
<path fill="none" stroke="#ffffff" d="M484.5926,-193.1411C488.8219,-156.2942 498.3589,-73.2046 502.5971,-36.2804"/>
</g>
<!-- cooking_quietly -->
<g id="node11" class="node">
<title>cooking_quietly</title>
<g id="a_node11"><a xlink:href="https://makyo.cooking" xlink:title="Quietly">
<polygon fill="#222222" stroke="#ffffff" points="310.1622,-96.9621 247.1622,-96.9621 247.1622,-60.9621 310.1622,-60.9621 310.1622,-96.9621"/>
<text text-anchor="middle" x="278.6622" y="-75.2621" font-family="Helvetica bold" font-size="14.00" fill="#cc99ff">Quietly</text>
</a>
</g>
</g>
<!-- cooking&#45;&#45;cooking_quietly -->
<g id="edge10" class="edge">
<title>cooking&#45;&#45;cooking_quietly</title>
<path fill="none" stroke="#ffffff" d="M338.6228,-249.6592C325.9464,-213.5718 297.6625,-133.0526 285.002,-97.0102"/>
</g>
<!-- cooking_loudly -->
<g id="node12" class="node">
<title>cooking_loudly</title>
<g id="a_node12"><a xlink:href="https://mealtime.with.maddypa.ws" xlink:title="Loudly">
<polygon fill="#222222" stroke="#ffffff" points="205.8865,-175.1477 144.8865,-175.1477 144.8865,-139.1477 205.8865,-139.1477 205.8865,-175.1477"/>
<text text-anchor="middle" x="175.3865" y="-153.4477" font-family="Helvetica bold" font-size="14.00" fill="#cc99ff">Loudly</text>
</a>
</g>
</g>
<!-- cooking&#45;&#45;cooking_loudly -->
<g id="edge11" class="edge">
<title>cooking&#45;&#45;cooking_loudly</title>
<path fill="none" stroke="#ffffff" d="M317.3559,-249.7439C285.8187,-229.1744 234.5329,-195.7245 203.0006,-175.1583"/>
</g>
<!-- photography_flickr -->
<g id="node14" class="node">
<title>photography_flickr</title>
<g id="a_node14"><a xlink:href="https://flickr.com/photos/ranna" xlink:title="On Flickr">
<polygon fill="#222222" stroke="#ffffff" points="745.3969,-711.7275 669.3969,-711.7275 669.3969,-675.7275 745.3969,-675.7275 745.3969,-711.7275"/>
<text text-anchor="middle" x="707.3969" y="-690.0275" font-family="Helvetica bold" font-size="14.00" fill="#cc99ff">On Flickr</text>
</a>
</g>
</g>
<!-- photography&#45;&#45;photography_flickr -->
<g id="edge14" class="edge">
<title>photography&#45;&#45;photography_flickr</title>
<path fill="none" stroke="#ffffff" d="M574.144,-584.5747C603.7117,-608.7948 655.6066,-651.304 685.1535,-675.5071"/>
</g>
<!-- photography_portfolio -->
<g id="node15" class="node">
<title>photography_portfolio</title>
<g id="a_node15"><a xlink:href="https://makyo.photography" xlink:title="For her portfolio">
<polygon fill="#222222" stroke="#ffffff" points="651.5148,-782.1846 529.5148,-782.1846 529.5148,-746.1846 651.5148,-746.1846 651.5148,-782.1846"/>
<text text-anchor="middle" x="590.5148" y="-760.4846" font-family="Helvetica bold" font-size="14.00" fill="#cc99ff">For her portfolio</text>
</a>
</g>
</g>
<!-- photography&#45;&#45;photography_portfolio -->
<g id="edge13" class="edge">
<title>photography&#45;&#45;photography_portfolio</title>
<path fill="none" stroke="#ffffff" d="M555.4266,-584.5803C562.7906,-622.2743 579.5994,-708.3127 586.9561,-745.9688"/>
</g>
<!-- composing_portfolio -->
<g id="node17" class="node">
<title>composing_portfolio</title>
<g id="a_node17"><a xlink:href="https://sounds.drab-makyo.com" xlink:title="For her portfolio">
<polygon fill="#222222" stroke="#ffffff" points="165.0013,-280.7212 43.0013,-280.7212 43.0013,-244.7212 165.0013,-244.7212 165.0013,-280.7212"/>
<text text-anchor="middle" x="104.0013" y="-259.0212" font-family="Helvetica bold" font-size="14.00" fill="#cc99ff">For her portfolio</text>
</a>
</g>
</g>
<!-- composing&#45;&#45;composing_portfolio -->
<g id="edge16" class="edge">
<title>composing&#45;&#45;composing_portfolio</title>
<path fill="none" stroke="#ffffff" d="M231.9502,-369.763C203.5644,-346.0155 154.1967,-304.7146 125.7981,-280.9563"/>
</g>
<!-- composing_bandcamp -->
<g id="node18" class="node">
<title>composing_bandcamp</title>
<g id="a_node18"><a xlink:href="https://drab-makyo.bandcamp.com" xlink:title="On Bandcamp">
<polygon fill="#222222" stroke="#ffffff" points="143.4338,-509.0072 33.4338,-509.0072 33.4338,-473.0072 143.4338,-473.0072 143.4338,-509.0072"/>
<text text-anchor="middle" x="88.4338" y="-487.3072" font-family="Helvetica bold" font-size="14.00" fill="#cc99ff">On Bandcamp</text>
</a>
</g>
</g>
<!-- composing&#45;&#45;composing_bandcamp -->
<g id="edge17" class="edge">
<title>composing&#45;&#45;composing_bandcamp</title>
<path fill="none" stroke="#ffffff" d="M224.5511,-406.1589C194.3385,-424.9918 147.4163,-454.2406 117.3117,-473.0062"/>
</g>
<!-- composing_soundcloud -->
<g id="node19" class="node">
<title>composing_soundcloud</title>
<g id="a_node19"><a xlink:href="https://soundcloud.com/drabmakyo" xlink:title="On Soundcloud">
<polygon fill="#222222" stroke="#ffffff" points="118,-392.8106 0,-392.8106 0,-356.8106 118,-356.8106 118,-392.8106"/>
<text text-anchor="middle" x="59" y="-371.1106" font-family="Helvetica bold" font-size="14.00" fill="#cc99ff">On Soundcloud</text>
</a>
</g>
</g>
<!-- composing&#45;&#45;composing_soundcloud -->
<g id="edge18" class="edge">
<title>composing&#45;&#45;composing_soundcloud</title>
<path fill="none" stroke="#ffffff" d="M202.0503,-384.4826C176.2489,-382.7381 144.911,-380.6192 118.1505,-378.8099"/>
</g>
<!-- talking_telegram -->
<g id="node21" class="node">
<title>talking_telegram</title>
<g id="a_node21"><a xlink:href="https://t.me/DrabMakyo" xlink:title="On Telegram">
<polygon fill="#222222" stroke="#ffffff" points="271.0889,-724.8087 171.0889,-724.8087 171.0889,-688.8087 271.0889,-688.8087 271.0889,-724.8087"/>
<text text-anchor="middle" x="221.0889" y="-703.1087" font-family="Helvetica bold" font-size="14.00" fill="#cc99ff">On Telegram</text>
</a>
</g>
</g>
<!-- talking&#45;&#45;talking_telegram -->
<g id="edge20" class="edge">
<title>talking&#45;&#45;talking_telegram</title>
<path fill="none" stroke="#ffffff" d="M305.5112,-545.4156C287.5047,-579.8391 248.6652,-654.0902 230.6393,-688.5508"/>
</g>
<!-- talking_matrix -->
<g id="node22" class="node">
<title>talking_matrix</title>
<g id="a_node22"><a xlink:href="https://matrix.to/#/@makyo:drab-makyo.com" xlink:title="On Matrix">
<polygon fill="#222222" stroke="#ffffff" points="170.8506,-624.8012 90.8506,-624.8012 90.8506,-588.8012 170.8506,-588.8012 170.8506,-624.8012"/>
<text text-anchor="middle" x="130.8506" y="-603.1012" font-family="Helvetica bold" font-size="14.00" fill="#cc99ff">On Matrix</text>
</a>
</g>
</g>
<!-- talking&#45;&#45;talking_matrix -->
<g id="edge21" class="edge">
<title>talking&#45;&#45;talking_matrix</title>
<path fill="none" stroke="#ffffff" d="M277.7636,-543.3133C246.7543,-556.7138 202.7071,-575.7487 170.9404,-589.4766"/>
</g>
<!-- social_twitter -->
<g id="node24" class="node">
<title>social_twitter</title>
<g id="a_node24"><a xlink:href="https://twitter.com/drab_makyo" xlink:title="On Twitter">
<polygon fill="#222222" stroke="#ffffff" points="507.8553,-807.8578 423.8553,-807.8578 423.8553,-771.8578 507.8553,-771.8578 507.8553,-807.8578"/>
<text text-anchor="middle" x="465.8553" y="-786.1578" font-family="Helvetica bold" font-size="14.00" fill="#cc99ff">On Twitter</text>
</a>
</g>
</g>
<!-- social&#45;&#45;social_twitter -->
<g id="edge23" class="edge">
<title>social&#45;&#45;social_twitter</title>
<path fill="none" stroke="#ffffff" d="M429.2872,-610.7558C436.9619,-648.3443 454.4796,-734.1421 462.1465,-771.693"/>
</g>
<!-- social_mastodon -->
<g id="node25" class="node">
<title>social_mastodon</title>
<g id="a_node25"><a xlink:href="https://snouts.online/@makyo" xlink:title="On Mastodon">
<polygon fill="#222222" stroke="#ffffff" points="382.7913,-787.776 278.7913,-787.776 278.7913,-751.776 382.7913,-751.776 382.7913,-787.776"/>
<text text-anchor="middle" x="330.7913" y="-766.076" font-family="Helvetica bold" font-size="14.00" fill="#cc99ff">On Mastodon</text>
</a>
</g>
</g>
<!-- social&#45;&#45;social_mastodon -->
<g id="edge24" class="edge">
<title>social&#45;&#45;social_mastodon</title>
<path fill="none" stroke="#ffffff" d="M415.7835,-610.846C397.5744,-644.8957 358.6926,-717.6022 340.524,-751.5764"/>
</g>
<!-- working_current -->
<g id="node27" class="node">
<title>working_current</title>
<g id="a_node27"><a xlink:href="https://archive.org" xlink:title="At Internet Archive">
<polygon fill="#222222" stroke="#ffffff" points="896.209,-489.0284 759.209,-489.0284 759.209,-453.0284 896.209,-453.0284 896.209,-489.0284"/>
<text text-anchor="middle" x="827.709" y="-467.3284" font-family="Helvetica bold" font-size="14.00" fill="#cc99ff">At Internet Archive</text>
</a>
</g>
</g>
<!-- working&#45;&#45;working_current -->
<g id="edge26" class="edge">
<title>working&#45;&#45;working_current</title>
<path fill="none" stroke="#ffffff" d="M669.1157,-464.7475C695.0937,-465.7763 729.2108,-467.1275 759.1435,-468.3129"/>
</g>
<!-- working_hybrid -->
<g id="node28" class="node">
<title>working_hybrid</title>
<g id="a_node28"><a xlink:href="https://hybrid.ink" xlink:title="At Hybrid Ink, LLC">
<polygon fill="#222222" stroke="#ffffff" points="847.9517,-613.9698 713.9517,-613.9698 713.9517,-577.9698 847.9517,-577.9698 847.9517,-613.9698"/>
<text text-anchor="middle" x="780.9517" y="-592.2698" font-family="Helvetica bold" font-size="14.00" fill="#cc99ff">At Hybrid Ink, LLC</text>
</a>
</g>
</g>
<!-- working&#45;&#45;working_hybrid -->
<g id="edge27" class="edge">
<title>working&#45;&#45;working_hybrid</title>
<path fill="none" stroke="#ffffff" d="M648.659,-481.3015C677.8489,-506.6026 730.4047,-552.1568 759.7212,-577.5676"/>
</g>
</g>
</svg>
